<svg xmlns="http://www.w3.org/2000/svg" viewBox="0 0 370.85 512"><title>mute</title><g id="Layer_3" data-name="Layer 3"><path d="M263,26.6C160.79,26.6,77.61,109.79,77.61,212c0,126.89,165.94,313.17,173,321a16.7,16.7,0,0,0,24.85,0c7.07-7.87,173-194.15,173-321C448.46,109.79,365.28,26.6,263,26.6Zm0,278.72A93.29,93.29,0,1,1,356.33,212,93.4,93.4,0,0,1,263,305.32Z" transform="translate(-77.61 -26.6)" style="fill:#010101"/></g><g id="Layer_2" data-name="Layer 2"><g id="volume-off"><path d="M300.45,211c0-16.17-9-29.64-22.45-35.92v19.76l22.45,22.45Zm22.45,0a67.46,67.46,0,0,1-4.49,23.35l13.47,13.47c6.29-10.78,9-24.25,9-37.72A81,81,0,0,0,278,131v18.86C304,158.87,322.9,182.22,322.9,211Zm-132-80.83L179.21,141.8,221.42,184H179.21V237.9h35.92L260,282.8V222.63l38.62,38.62A75.09,75.09,0,0,1,278,272v18.86a76.68,76.68,0,0,0,33.23-16.17l18,18L340.86,281,260,200.18Zm69.15,9L241.18,158,260,176.83Z" transform="translate(-77.61 -26.6)" /></g></g></svg>